<?xml version="1.0" standalone="no"?>
<!DOCTYPE svg PUBLIC "-//W3C//DTD SVG 20010904//EN"
 "http://www.w3.org/TR/2001/REC-SVG-20010904/DTD/svg10.dtd">
<svg version="1.0" xmlns="http://www.w3.org/2000/svg"
 width="48.000000pt" height="48.000000pt" viewBox="0 0 48.000000 48.000000"
 preserveAspectRatio="xMidYMid meet">

<g transform="translate(0.000000,48.000000) scale(0.100000,-0.100000)"
fill="#000000" stroke="none">
<path d="M0 240 l0 -240 240 0 240 0 0 240 0 240 -240 0 -240 0 0 -240z m188
75 c0 -15 -3 -13 -12 9 -11 25 -14 26 -18 9 -8 -30 6 -55 52 -92 l42 -33 35
33 c42 41 57 74 43 97 -8 15 -9 14 -10 -5 0 -12 -5 -25 -12 -29 -8 -5 -9 0 -5
17 4 13 7 33 7 43 0 19 0 19 21 0 17 -15 20 -27 16 -59 -3 -22 -8 -48 -12 -57
-4 -10 -3 -18 3 -18 18 0 50 34 57 60 l6 25 -20 -24 c-23 -26 -27 -16 -9 24
15 33 32 27 36 -14 2 -23 -4 -42 -23 -67 l-26 -34 29 0 c16 0 37 9 47 20 21
23 13 39 -10 20 -23 -19 -18 4 5 25 26 24 44 8 34 -30 -9 -37 -57 -65 -101
-58 -26 4 -42 0 -63 -16 -34 -25 -72 -27 -90 -6 -7 9 -29 15 -54 15 -41 -1
-41 -1 -16 -16 l25 -15 -25 7 c-73 19 -120 57 -120 96 0 35 10 35 41 1 l24
-27 -27 17 c-32 20 -37 6 -8 -23 15 -15 32 -20 73 -19 30 1 63 -4 75 -10 12
-6 22 -9 22 -7 0 11 -62 37 -75 32 -14 -5 -75 56 -75 74 0 5 5 21 11 36 l10
28 19 -30 c26 -38 25 -56 0 -25 -18 21 -20 22 -20 4 0 -21 33 -56 63 -66 16
-6 16 -4 0 31 -21 47 -20 78 3 104 l19 20 6 -24 c4 -12 7 -32 7 -43z m192
-150 c0 -2 -10 -10 -22 -16 -21 -11 -22 -11 -9 4 13 16 31 23 31 12z"/>
<path d="M180 232 c0 -5 15 -19 33 -32 l32 -23 -29 31 c-31 34 -36 37 -36 24z"/>
<path d="M292 223 c-7 -2 -17 -14 -23 -26 -11 -21 -10 -20 15 2 14 14 26 26
26 28 0 3 0 3 -18 -4z"/>
<path d="M299 190 l-24 -20 33 16 c32 15 40 24 23 24 -5 0 -19 -9 -32 -20z"/>
</g>
</svg>
